<svg xmlns="http://www.w3.org/2000/svg" width="22" height="24" viewBox="0 0 22 24">
  <path id="linkedin" d="M20.371,24H1.624A1.682,1.682,0,0,1,0,22.269V1.729A1.681,1.681,0,0,1,1.624,0H20.371A1.683,1.683,0,0,1,22,1.729v20.54A1.685,1.685,0,0,1,20.371,24ZM14.129,12.2C15.8,12.2,15.8,14,15.8,15.306V21H19V14.577C19,11.681,18.534,9,15.155,9a3.341,3.341,0,0,0-3.035,1.891h-.043v-1.6H9V21h3.206V15.208C12.206,13.722,12.434,12.2,14.129,12.2ZM3,9V20H6V9ZM5,3A2,2,0,1,0,7,5,2,2,0,0,0,5,3Z" transform="translate(0 0)" fill="#4d535b"/>
</svg>
