<svg xmlns="http://www.w3.org/2000/svg" width="24" height="23.993" viewBox="0 0 24 23.993">
  <g id="telephone" transform="translate(0 -0.003)">
    <path id="Path" d="M23.986,18.935a1.161,1.161,0,0,0-.611-.836L18.46,15.2l-.04-.023a1.459,1.459,0,0,0-.664-.154,1.526,1.526,0,0,0-1.078.43l-1.451,1.451a.849.849,0,0,1-.326.147c-.017,0-1.688-.122-4.764-3.2s-3.2-4.747-3.2-4.747a.775.775,0,0,1,.146-.35L8.318,7.523A1.578,1.578,0,0,0,8.626,5.8L5.894.661A1.129,1.129,0,0,0,4.882,0a1.165,1.165,0,0,0-.823.353L.686,3.718A2.582,2.582,0,0,0,.024,5.054c-.029.216-.628,5.38,6.452,12.461,6.011,6.01,10.7,6.477,11.992,6.477h0a3.668,3.668,0,0,0,.472-.024,2.583,2.583,0,0,0,1.334-.66l3.369-3.369A1.161,1.161,0,0,0,23.986,18.935Z" transform="translate(0 0.003)" fill="#0152bc"/>
  </g>
</svg>
