<svg xmlns="http://www.w3.org/2000/svg" width="128" height="28" viewBox="0 0 128 28">
    <g fill="none" fill-rule="evenodd">
        <path d="M0-50h128V78H0z"/>
        <g fill-rule="nonzero">
            <path fill="#3C3935" d="M125.971 25.92a.932.932 0 0 1 1.007-.805.935.935 0 0 1 .845.975.934.934 0 0 1-.927.897.983.983 0 0 1-.684-.338.998.998 0 0 1-.24-.728zm.925.89a.89.89 0 0 0 .926-.438.904.904 0 0 0-.09-1.027.889.889 0 0 0-.989-.267.899.899 0 0 0-.588.843.813.813 0 0 0 .184.602c.14.168.34.271.557.287zm-.193-.273h-.158V25.31h.399c.249 0 .371.107.371.35a.304.304 0 0 1-.272.337l.298.54h-.178l-.277-.532h-.183v.532zm.19-.69c.135 0 .256-.01.256-.2 0-.151-.119-.18-.229-.18h-.217v.38h.19z"/>
            <path fill="#F08018" d="M116.285 26.128l-.532-2.084a.375.375 0 0 0-.225-.294.318.318 0 0 0-.344.044l-.348.278a2.07 2.07 0 0 1-1.473.679c-2.343.007-3.21-2.738-3.249-5.088-.046-2.755 1.001-5.576 3.083-5.625.494 0 .956.25 1.23.666l.279.296c.088.093.22.129.343.094a.4.4 0 0 0 .264-.264l.81-2.107a.427.427 0 0 0-.18-.51l-.216-.132a4.537 4.537 0 0 0-2.474-.79 7.706 7.706 0 0 0-5.818 2.18c-1.432 1.502-2.136 3.666-2.092 6.44.074 4.685 2.526 7.229 7.102 7.343a8.946 8.946 0 0 0 3.665-.676.404.404 0 0 0 .175-.45zM92.186 10.516a.41.41 0 0 0-.372-.384 4.478 4.478 0 0 0-3.826 2.058l-.057-1.546a.43.43 0 0 0-.155-.316.404.404 0 0 0-.339-.061l-4.185 1.2a.403.403 0 0 0-.277.457l2.227 14.736c.034.215.23.365.445.343l2.063-.29a.402.402 0 0 0 .336-.383l.32-5.612c.145-3.185 1.603-4.61 2.897-4.59h.079c.205-.02.412-.02.618 0a.392.392 0 0 0 .345-.083c.1-.08.155-.204.15-.333l-.269-5.196zM104.855 19.66l.092-1.129c.073-.835.152-1.7.138-2.11a6.83 6.83 0 0 0-1.803-4.66 4.66 4.66 0 0 0-3.478-1.362 7.006 7.006 0 0 0-5.132 2.285 9.361 9.361 0 0 0-2.198 6.588 7.688 7.688 0 0 0 2.278 5.506 7.576 7.576 0 0 0 5.509 2.19c3.006-.042 4.48-1.453 4.543-1.512a.427.427 0 0 0 .103-.425l-.6-1.985a.402.402 0 0 0-.292-.275.373.373 0 0 0-.377.123 3.406 3.406 0 0 1-2.257 1.126c-2.46-.048-3.552-1.358-3.719-4.433.78.051 6.78.457 6.78.457.217.005.4-.165.413-.383zm-7.073-2.603c.018-1.428.31-2.526.83-3.113a1.448 1.448 0 0 1 1.08-.494 1.01 1.01 0 0 1 .777.27c.51.514.647 1.802.698 3.088l-3.385.249zM77.455 4.82l-3.951-.843a.41.41 0 0 0-.331.087.437.437 0 0 0-.14.319v7.44a2.647 2.647 0 0 0-.773-.355 5.277 5.277 0 0 0-1.46-.22 4.834 4.834 0 0 0-4.199 2.024c-.924 1.305-1.394 3.132-1.394 5.43v1.526c0 2.548.425 4.296 1.325 5.346a4.252 4.252 0 0 0 3.355 1.59 4.101 4.101 0 0 0 2.213-.566c.383-.26.726-.575 1.018-.935.023.444.04.9.04.9a.396.396 0 0 0 .387.388h3.304a.41.41 0 0 0 .397-.4l.524-21.32a.408.408 0 0 0-.315-.411zm-7.903 14.007a7.078 7.078 0 0 1 .572-3.203c.335-.646.742-1.26 1.427-1.392.322-.05.65.018.926.193l.103.057c.26.129.436.382.468.672a16.99 16.99 0 0 1 .26 3.354c.027 1.091-.06 2.182-.26 3.254a3.462 3.462 0 0 1-.74 1.428 1.78 1.78 0 0 1-1.097.383 1.248 1.248 0 0 1-1.217-.72 7.007 7.007 0 0 1-.442-3v-1.026zM82.349 11.822a.396.396 0 0 0-.389-.396h-2.936a.405.405 0 0 0-.39.396l-.49 14.703a.442.442 0 0 0 .11.302.394.394 0 0 0 .28.124h3.918a.391.391 0 0 0 .391-.426l-.494-14.703zM124.776 26.205l-.358-3.141a.438.438 0 0 0-.152-.283.412.412 0 0 0-.306-.075 5.419 5.419 0 0 1-.714-.013l-.284-.007h-.034a1.416 1.416 0 0 1-.905-.221c-.152-.147-.154-.398-.129-1.15v-.034s.037-6.03.044-6.786c.58.024 2.279.1 2.279.1a.389.389 0 0 0 .296-.124.377.377 0 0 0 .11-.268v-.045l-.143-2.43a.394.394 0 0 0-.39-.384s-1.743.006-2.31.012c-.017-.662-.068-3.801-.068-3.801a.396.396 0 0 0-.46-.398l-2.336.429a.407.407 0 0 0-.325.368l-.277 3.377c-.421.067-1.506.244-1.506.244a.409.409 0 0 0-.33.397l-.075 1.84a.407.407 0 0 0 .38.427s.614.028 1.029.043c-.035.731-.274 7.069-.274 7.069a6.913 6.913 0 0 0 .876 4.112 3.469 3.469 0 0 0 2.866 1.615 9.55 9.55 0 0 0 1.592-.07 5.952 5.952 0 0 0 1.674-.383.424.424 0 0 0 .23-.42z"/>
            <path fill="#69A425" d="M46.628 13.317a8.723 8.723 0 0 1 2.881 1.576.38.38 0 0 0 .527-.037l1.709-1.827a.443.443 0 0 0 .044-.518 6.405 6.405 0 0 0-5.361-2.51c-2.707 0-4.75 2.254-4.75 5.25 0 3.124 2.251 4.392 3.89 5.32.997.566 1.854 1.05 1.854 1.71 0 .39-.179.594-.527.606-.744.033-2.317-.689-4.007-2.358a.38.38 0 0 0-.383-.09.403.403 0 0 0-.271.301l-.968 4.499a.415.415 0 0 0 .186.44 9.767 9.767 0 0 0 4.778 1.272c2.921-.142 5.178-2.638 5.046-5.581 0-2.84-1.989-4.254-3.589-5.392-.98-.692-1.819-1.292-1.902-2a.628.628 0 0 1 .19-.534.65.65 0 0 1 .653-.127zM21.442 1.686l-.035-.024a8.705 8.705 0 0 0-4.71-1.147c-3.646.225-5.623 2.8-5.623 7.287 0 .3.01.609.03.936 0 0 .024.509.047.903-.524.008-1.68.036-1.68.036a.409.409 0 0 0-.285.14.436.436 0 0 0-.097.272c0 .016 0 .031.004.046l.293 2.562c.01.114.07.217.162.283a.375.375 0 0 0 .31.07s1.232-.282 1.732-.4l3.54 14.36a.41.41 0 0 0 .19.258.378.378 0 0 0 .306.031l2.17-.721a.417.417 0 0 0 .273-.421s-1.134-13.902-1.19-14.554c.497-.135 2.405-.669 2.405-.669a.411.411 0 0 0 .292-.4.25.25 0 0 0-.006-.05l-.21-1.741a.456.456 0 0 0-.161-.286.405.405 0 0 0-.31-.066s-1.619.352-2.278.498c.007-.184.01-.384.01-.384.017-2.504 1.007-4.177 2.526-4.273.407.081.789.258 1.116.515l.445.269a.366.366 0 0 0 .354.01.401.401 0 0 0 .208-.322l.377-2.597a.415.415 0 0 0-.205-.421z"/>
            <path fill="#69A425" d="M28.01 10.516a.395.395 0 0 0-.366-.384 4.46 4.46 0 0 0-3.823 2.058c-.033-.764-.06-1.546-.06-1.546a.43.43 0 0 0-.158-.316.397.397 0 0 0-.338-.061l-4.182 1.2a.4.4 0 0 0-.282.457l2.232 14.736a.404.404 0 0 0 .44.343l2.066-.29a.405.405 0 0 0 .335-.383l.317-5.612c.149-3.185 1.603-4.61 2.903-4.59h.074c.205-.02.41-.02.616 0 .124.03.255 0 .353-.082a.41.41 0 0 0 .147-.334l-.273-5.196zM40.686 19.66l.09-1.129c.071-.835.15-1.7.14-2.11a6.807 6.807 0 0 0-1.814-4.66 4.627 4.627 0 0 0-3.471-1.362 7.007 7.007 0 0 0-5.13 2.285 9.357 9.357 0 0 0-2.198 6.588 7.683 7.683 0 0 0 2.278 5.508 7.57 7.57 0 0 0 5.512 2.188c3.002-.042 4.48-1.453 4.54-1.512a.434.434 0 0 0 .104-.425l-.604-1.985a.399.399 0 0 0-.291-.275.359.359 0 0 0-.37.123 3.44 3.44 0 0 1-2.264 1.126c-2.458-.048-3.55-1.358-3.719-4.433.786.051 6.781.457 6.781.457a.41.41 0 0 0 .416-.383zm-7.08-2.603c.024-1.428.312-2.526.84-3.113.27-.31.66-.49 1.07-.494.287-.026.57.073.78.27.511.514.654 1.802.7 3.088l-3.39.249zM63.185 12.092a4.371 4.371 0 0 0-3.028-1.514 4.053 4.053 0 0 0-3.102 1.362l.35-7.513v-.02a.412.412 0 0 0-.142-.312.37.37 0 0 0-.337-.09l-4.793 1.138a.408.408 0 0 0-.3.432l1.477 20.917a.4.4 0 0 0 .4.381l2.719-.07a.401.401 0 0 0 .378-.391l.43-9.852c.058-1.587 1.004-3.284 2.321-3.284.352-.024.697.11.94.367.614.695.5 2.27.43 3.21l-.698 9.645a.437.437 0 0 0 .126.338c.089.084.212.121.333.101l3.253-.621a.41.41 0 0 0 .313-.392l.433-9.468a6.053 6.053 0 0 0-1.503-4.364zM79.234 10.448s-.998-2.065 1.822-2.911c2.832-.856 3.428-1.204 3.523-1.735.092-.533 1.268 6.479-5.345 4.646zM12.552 23.066s1.955-4.69-4.38-6.171C1.841 15.405.48 14.705.206 13.55c-.275-1.16-1.993 14.463 12.346 9.516z"/>
            <path fill="#F93" d="M116.285 26.128l-.532-2.084a.375.375 0 0 0-.225-.294.318.318 0 0 0-.344.044l-.348.278a2.07 2.07 0 0 1-1.473.679c-2.343.007-3.21-2.738-3.249-5.088-.046-2.755 1.001-5.576 3.083-5.625.494 0 .956.25 1.23.666l.279.296c.088.093.22.129.343.094a.4.4 0 0 0 .264-.264l.81-2.107a.427.427 0 0 0-.18-.51l-.216-.132a4.537 4.537 0 0 0-2.474-.79 7.706 7.706 0 0 0-5.818 2.18c-1.432 1.502-2.136 3.666-2.092 6.44.074 4.685 2.526 7.229 7.102 7.343a8.946 8.946 0 0 0 3.665-.676.404.404 0 0 0 .175-.45zM92.186 10.516a.41.41 0 0 0-.372-.384 4.478 4.478 0 0 0-3.826 2.058l-.057-1.546a.43.43 0 0 0-.155-.316.404.404 0 0 0-.339-.061l-4.185 1.2a.403.403 0 0 0-.277.457l2.227 14.736c.034.215.23.365.445.343l2.063-.29a.402.402 0 0 0 .336-.383l.32-5.612c.145-3.185 1.603-4.61 2.897-4.59h.079c.205-.02.412-.02.618 0a.392.392 0 0 0 .345-.083c.1-.08.155-.204.15-.333l-.269-5.196zM104.855 19.66l.092-1.129c.073-.835.152-1.7.138-2.11a6.83 6.83 0 0 0-1.803-4.66 4.66 4.66 0 0 0-3.478-1.362 7.006 7.006 0 0 0-5.132 2.285 9.361 9.361 0 0 0-2.198 6.588 7.688 7.688 0 0 0 2.278 5.506 7.576 7.576 0 0 0 5.509 2.19c3.006-.042 4.48-1.453 4.543-1.512a.427.427 0 0 0 .103-.425l-.6-1.985a.402.402 0 0 0-.292-.275.373.373 0 0 0-.377.123 3.406 3.406 0 0 1-2.257 1.126c-2.46-.048-3.552-1.358-3.719-4.433.78.051 6.78.457 6.78.457.217.005.4-.165.413-.383zm-7.073-2.603c.018-1.428.31-2.526.83-3.113a1.448 1.448 0 0 1 1.08-.494 1.01 1.01 0 0 1 .777.27c.51.514.647 1.802.698 3.088l-3.385.249zM77.455 4.82l-3.951-.843a.41.41 0 0 0-.331.087.437.437 0 0 0-.14.319v7.44a2.647 2.647 0 0 0-.773-.355 5.277 5.277 0 0 0-1.46-.22 4.834 4.834 0 0 0-4.199 2.024c-.924 1.305-1.394 3.132-1.394 5.43v1.526c0 2.548.425 4.296 1.325 5.346a4.252 4.252 0 0 0 3.355 1.59 4.101 4.101 0 0 0 2.213-.566c.383-.26.726-.575 1.018-.935.023.444.04.9.04.9a.396.396 0 0 0 .387.388h3.304a.41.41 0 0 0 .397-.4l.524-21.32a.408.408 0 0 0-.315-.411zm-7.903 14.007a7.078 7.078 0 0 1 .572-3.203c.335-.646.742-1.26 1.427-1.392.322-.05.65.018.926.193l.103.057c.26.129.436.382.468.672a16.99 16.99 0 0 1 .26 3.354c.027 1.091-.06 2.182-.26 3.254a3.462 3.462 0 0 1-.74 1.428 1.78 1.78 0 0 1-1.097.383 1.248 1.248 0 0 1-1.217-.72 7.007 7.007 0 0 1-.442-3v-1.026zM82.349 11.822a.396.396 0 0 0-.389-.396h-2.936a.405.405 0 0 0-.39.396l-.49 14.703a.442.442 0 0 0 .11.302.394.394 0 0 0 .28.124h3.918a.391.391 0 0 0 .391-.426l-.494-14.703zM124.776 26.205l-.358-3.141a.438.438 0 0 0-.152-.283.412.412 0 0 0-.306-.075 5.419 5.419 0 0 1-.714-.013l-.284-.007h-.034a1.416 1.416 0 0 1-.905-.221c-.152-.147-.154-.398-.129-1.15v-.034s.037-6.03.044-6.786c.58.024 2.279.1 2.279.1a.389.389 0 0 0 .296-.124.377.377 0 0 0 .11-.268v-.045l-.143-2.43a.394.394 0 0 0-.39-.384s-1.743.006-2.31.012c-.017-.662-.068-3.801-.068-3.801a.396.396 0 0 0-.46-.398l-2.336.429a.407.407 0 0 0-.325.368l-.277 3.377c-.421.067-1.506.244-1.506.244a.409.409 0 0 0-.33.397l-.075 1.84a.407.407 0 0 0 .38.427s.614.028 1.029.043c-.035.731-.274 7.069-.274 7.069a6.913 6.913 0 0 0 .876 4.112 3.469 3.469 0 0 0 2.866 1.615 9.55 9.55 0 0 0 1.592-.07 5.952 5.952 0 0 0 1.674-.383.424.424 0 0 0 .23-.42z"/>
            <path fill="#693" d="M46.628 13.317a8.723 8.723 0 0 1 2.881 1.576.38.38 0 0 0 .527-.037l1.709-1.827a.443.443 0 0 0 .044-.518 6.405 6.405 0 0 0-5.361-2.51c-2.707 0-4.75 2.254-4.75 5.25 0 3.124 2.251 4.392 3.89 5.32.997.566 1.854 1.05 1.854 1.71 0 .39-.179.594-.527.606-.744.033-2.317-.689-4.007-2.358a.38.38 0 0 0-.383-.09.403.403 0 0 0-.271.301l-.968 4.499a.415.415 0 0 0 .186.44 9.767 9.767 0 0 0 4.778 1.272c2.921-.142 5.178-2.638 5.046-5.581 0-2.84-1.989-4.254-3.589-5.392-.98-.692-1.819-1.292-1.902-2a.628.628 0 0 1 .19-.534.65.65 0 0 1 .653-.127zM21.442 1.686l-.035-.024a8.705 8.705 0 0 0-4.71-1.147c-3.646.225-5.623 2.8-5.623 7.287 0 .3.01.609.03.936 0 0 .024.509.047.903-.524.008-1.68.036-1.68.036a.409.409 0 0 0-.285.14.436.436 0 0 0-.097.272c0 .016 0 .031.004.046l.293 2.562c.01.114.07.217.162.283a.375.375 0 0 0 .31.07s1.232-.282 1.732-.4l3.54 14.36a.41.41 0 0 0 .19.258.378.378 0 0 0 .306.031l2.17-.721a.417.417 0 0 0 .273-.421s-1.134-13.902-1.19-14.554c.497-.135 2.405-.669 2.405-.669a.411.411 0 0 0 .292-.4.25.25 0 0 0-.006-.05l-.21-1.741a.456.456 0 0 0-.161-.286.405.405 0 0 0-.31-.066s-1.619.352-2.278.498c.007-.184.01-.384.01-.384.017-2.504 1.007-4.177 2.526-4.273.407.081.789.258 1.116.515l.445.269a.366.366 0 0 0 .354.01.401.401 0 0 0 .208-.322l.377-2.597a.415.415 0 0 0-.205-.421z"/>
            <path fill="#693" d="M28.01 10.516a.395.395 0 0 0-.366-.384 4.46 4.46 0 0 0-3.823 2.058c-.033-.764-.06-1.546-.06-1.546a.43.43 0 0 0-.158-.316.397.397 0 0 0-.338-.061l-4.182 1.2a.4.4 0 0 0-.282.457l2.232 14.736a.404.404 0 0 0 .44.343l2.066-.29a.405.405 0 0 0 .335-.383l.317-5.612c.149-3.185 1.603-4.61 2.903-4.59h.074c.205-.02.41-.02.616 0 .124.03.255 0 .353-.082a.41.41 0 0 0 .147-.334l-.273-5.196zM40.686 19.66l.09-1.129c.071-.835.15-1.7.14-2.11a6.807 6.807 0 0 0-1.814-4.66 4.627 4.627 0 0 0-3.471-1.362 7.007 7.007 0 0 0-5.13 2.285 9.357 9.357 0 0 0-2.198 6.588 7.683 7.683 0 0 0 2.278 5.508 7.57 7.57 0 0 0 5.512 2.188c3.002-.042 4.48-1.453 4.54-1.512a.434.434 0 0 0 .104-.425l-.604-1.985a.399.399 0 0 0-.291-.275.359.359 0 0 0-.37.123 3.44 3.44 0 0 1-2.264 1.126c-2.458-.048-3.55-1.358-3.719-4.433.786.051 6.781.457 6.781.457a.41.41 0 0 0 .416-.383zm-7.08-2.603c.024-1.428.312-2.526.84-3.113.27-.31.66-.49 1.07-.494.287-.026.57.073.78.27.511.514.654 1.802.7 3.088l-3.39.249zM63.185 12.092a4.371 4.371 0 0 0-3.028-1.514 4.053 4.053 0 0 0-3.102 1.362l.35-7.513v-.02a.412.412 0 0 0-.142-.312.37.37 0 0 0-.337-.09l-4.793 1.138a.408.408 0 0 0-.3.432l1.477 20.917a.4.4 0 0 0 .4.381l2.719-.07a.401.401 0 0 0 .378-.391l.43-9.852c.058-1.587 1.004-3.284 2.321-3.284.352-.024.697.11.94.367.614.695.5 2.27.43 3.21l-.698 9.645a.437.437 0 0 0 .126.338c.089.084.212.121.333.101l3.253-.621a.41.41 0 0 0 .313-.392l.433-9.468a6.053 6.053 0 0 0-1.503-4.364zM79.234 10.448s-.998-2.065 1.822-2.911c2.832-.856 3.428-1.204 3.523-1.735.092-.533 1.268 6.479-5.345 4.646zM12.552 23.066s1.955-4.69-4.38-6.171C1.841 15.405.48 14.705.206 13.55c-.275-1.16-1.993 14.463 12.346 9.516z"/>
        </g>
    </g>
</svg>
