<svg xmlns="http://www.w3.org/2000/svg" width="128" height="20" viewBox="0 0 128 20">
    <g fill="none" fill-rule="evenodd">
        <path d="M0-54h128V74H0z"/>
        <g fill="#00274C">
            <path d="M48.19.5v.354h2.108L56.48 19.1h.737l4.18-11.894h.036L65.577 19.1h.703L72.708.854h2.036V.5h-4.6v.354h2.142l-4.637 13.27h-.034L63.084.854h2.318V.5h-7.481v.354h1.368l1.933 5.752-2.634 7.483h-.035L54.057.854h1.827V.5H48.19zM15.35 5.124h.35V.5H0v4.624h.317A6.466 6.466 0 0 1 2.177 1.7 4.468 4.468 0 0 1 5.13.854h.914v17.187h-2.32v.353h8.22v-.353H9.66V.854h.913a4.527 4.527 0 0 1 2.95.846c.773.6 1.371 1.765 1.827 3.424zM19.354 7.63v.318h1.65V18.04h-1.65v.353h6.181v-.353h-1.474v-6.106c-.086-1.049.16-2.099.702-3a2.322 2.322 0 0 1 1.791-.882c1.018 0 1.511.671 1.511 1.977v8.011H26.59v.353h6.005v-.353h-1.474V10.63a2.41 2.41 0 0 1 .913-1.976c.394-.366.904-.579 1.44-.6 1.089 0 1.651.74 1.651 2.188v7.8h-1.44v.353h6.146v-.353h-1.65V11.16a4.64 4.64 0 0 0-.457-2.33c-.562-.952-1.686-1.447-3.302-1.447a3.697 3.697 0 0 0-3.406 2.013 4.144 4.144 0 0 0-1.054-1.378 4.229 4.229 0 0 0-2.424-.635 3.876 3.876 0 0 0-3.477 2.013h-.071V7.629h-4.636z"/>
            <path d="M12.575 7.63v.317h1.686v10.094h-1.686v.353h6.428v-.353h-1.686V7.63h-4.742zM49.244 8.406a4.816 4.816 0 0 0-3.3-1.13 5.567 5.567 0 0 0-4.146 1.765 5.414 5.414 0 0 0-1.686 3.953 5.356 5.356 0 0 0 1.791 4.2 6.2 6.2 0 0 0 4.391 1.553 4.49 4.49 0 0 0 3.196-1.13 4.125 4.125 0 0 0 1.23-2.011l-.352-.142a3.573 3.573 0 0 1-.878 1.695 3.661 3.661 0 0 1-2.81 1.235 2.649 2.649 0 0 1-2.704-1.694 9.453 9.453 0 0 1-.492-3.494v-1.094h7.377a4.444 4.444 0 0 0-1.617-3.706zm-5.373.635a1.938 1.938 0 0 1 2.001-1.412c1.09 0 1.617.777 1.617 2.401v1.693h-4.005a9.212 9.212 0 0 1 .387-2.682zM92.307 9.535a2.056 2.056 0 0 0-.632-1.587 2.725 2.725 0 0 0-1.722-.566c-1.405 0-2.494.777-3.231 2.33h-.036V7.629H82.05v.319h1.652V18.04H82.05v.353h6.674v-.353h-2.002v-6.423a4.403 4.403 0 0 1 .808-2.577 1.884 1.884 0 0 1 1.334-.917c.387 0 .562.212.562.6l-.14 1.27c0 .742.491 1.13 1.51 1.13 1.02 0 1.51-.53 1.51-1.589z"/>
            <path d="M91.885 7.63v.318h1.686V18.04h-1.686v.353h6.322v-.353h-1.615v-5.364a5.785 5.785 0 0 1 .912-3.46 2.536 2.536 0 0 1 2.144-1.164c1.018 0 1.58.671 1.58 2.047v7.941h-1.58v.353h6.287v-.353h-1.686v-7.094a3.608 3.608 0 0 0-.95-2.611 3.3 3.3 0 0 0-2.528-.954 4.27 4.27 0 0 0-4.179 2.718h-.035V7.63h-4.672zM115.348 8.406a4.971 4.971 0 0 0-3.337-1.13 5.567 5.567 0 0 0-4.145 1.765 5.414 5.414 0 0 0-1.686 3.953 5.356 5.356 0 0 0 1.792 4.2 6.29 6.29 0 0 0 4.426 1.553 4.46 4.46 0 0 0 3.16-1.13 4.115 4.115 0 0 0 1.23-2.011l-.35-.142a3.578 3.578 0 0 1-.88 1.695 3.609 3.609 0 0 1-2.81 1.235 2.65 2.65 0 0 1-2.704-1.694 9.453 9.453 0 0 1-.491-3.494v-1.094h7.376a4.521 4.521 0 0 0-1.581-3.706zm-3.408-.777c1.09 0 1.652.777 1.652 2.401v1.693h-4.04c.014-.907.144-1.808.387-2.682a1.965 1.965 0 0 1 2.001-1.412zM117.561 7.63v.318h1.615V18.04h-1.615v.353h6.638v-.353h-1.966v-6.423a4.629 4.629 0 0 1 .773-2.577c.291-.485.778-.82 1.333-.917a.522.522 0 0 1 .599.6l-.177 1.27c0 .742.527 1.13 1.51 1.13.431.054.862-.097 1.166-.409.303-.311.444-.748.38-1.18a1.963 1.963 0 0 0-.668-1.587 2.55 2.55 0 0 0-1.684-.566c-1.44 0-2.495.777-3.232 2.33h-.036V7.629h-4.636zM75.412 7.277a5.972 5.972 0 0 0-2.95.67 2.303 2.303 0 0 0-1.3 2.012c0 .847.491 1.27 1.44 1.27 1.019 0 1.51-.317 1.51-1.023l-.14-1.376c0-.813.457-1.2 1.44-1.2 1.018 0 1.545.564 1.545 1.765v1.517a1.471 1.471 0 0 1-.632 1.341c-.854.409-1.749.728-2.669.953a8.814 8.814 0 0 0-2.248.988 2.286 2.286 0 0 0-1.019 2.047 2.03 2.03 0 0 0 1.16 1.94c.728.406 1.555.602 2.387.566a3.807 3.807 0 0 0 2.003-.388 2.51 2.51 0 0 0 1.124-1.377h.035c.21 1.2 1.124 1.765 2.67 1.765 1.158 0 1.93-.247 2.248-.776l-.246-.212a1.27 1.27 0 0 1-.949.494c-.562 0-.808-.424-.808-1.236v-6.211c0-2.365-1.546-3.53-4.601-3.53zm1.51 4.905h.035v3.282a3.487 3.487 0 0 1-.562 2.083 1.464 1.464 0 0 1-1.193.635c-1.09 0-1.652-.811-1.652-2.4a2.59 2.59 0 0 1 .879-2.047c.562-.39 1.162-.72 1.791-.988a1.21 1.21 0 0 0 .702-.565z"/>
        </g>
    </g>
</svg>
