<svg xmlns="http://www.w3.org/2000/svg" width="128" height="52" viewBox="0 0 128 52">
    <g fill="none" fill-rule="evenodd">
        <path d="M0-38h128V90H0z"/>
        <g fill-rule="nonzero">
            <path fill="#231F20" d="M75.164 21.127l-1.666-.977c-1.375-7.415-8.47-7.183-8.47-7.183-7.785.751-7.667 8.68-7.667 8.68h5.837a3.668 3.668 0 0 1 .342-1.608c.577-1.156 1.947-1.096 1.947-1.096.452 0 2.346.113 2.346 1.894 0 1.666-.689 2.932-3.093 2.932h-6.407c-1.144 0-2.23-.745-2.23-2.184v-8.442h-5.502V23.88c0 2.475 3.2 5.175 4.753 5.175 1.544 0 8.697.17 12.254 0 3.551-.17 5.376-3.617 5.376-3.617l5.159 3.557H80.6V13.143h-5.437v7.984zM82.091 29.226h5.551V13.14h-5.609zM108.768 17.62h-5.093v-4.188H98.23v8.613h4.987v2.008h-7.275c-1.258 0-1.486-1.669-1.486-2.814v-7.807h-5.553s-.23 9.786-.111 10.852c.57 5.254 6.215 5.06 6.215 5.06s.342-3.679 3.4-3.679c3.706 0 3.95 3.678 3.95 3.678 4.978.234 6.41-4.259 6.41-5.63v-6.094z"/>
            <path fill="#231F20" d="M96.114 29.308a2.57 2.57 0 0 1 1.583-2.373 2.552 2.552 0 0 1 2.79.56c.73.736.948 1.842.55 2.802a2.56 2.56 0 0 1-2.367 1.583 2.565 2.565 0 0 1-2.556-2.572M115.81 17.93a1.183 1.183 0 0 1 1.176 1.188 1.182 1.182 0 0 1-1.183 1.182 1.183 1.183 0 0 1-1.177-1.188 1.172 1.172 0 0 1 1.184-1.182m0 6.89a5.687 5.687 0 0 0 5.258-3.523 5.726 5.726 0 0 0-1.232-6.224 5.671 5.671 0 0 0-6.2-1.238 5.71 5.71 0 0 0-3.51 5.277c.003 3.15 2.545 5.705 5.684 5.708"/>
            <path fill="#231F20" d="M117.34 25.547c-3.938 1.23-6.149-1.411-6.149-1.411l-2.746 4.205c3.435 4.145 6.983 1.986 7.664 1.845 2.942-.609 5.543 1.8 5.543 1.8l2.974-4.485c-3.589-3.365-6.695-2.138-7.286-1.954M125.677 48.563v-.688h.461c.23 0 .477.051.477.321 0 .351-.254.367-.53.367h-.408zm0 .29h.379l.588.957h.379l-.625-.976a.572.572 0 0 0 .564-.612c0-.43-.255-.635-.774-.635h-.84v2.223h.33v-.957zm-1.16-.163c.031-.856.74-1.528 1.593-1.51a1.563 1.563 0 0 1 1.525 1.578 1.563 1.563 0 0 1-1.55 1.553 1.552 1.552 0 0 1-1.13-.474 1.565 1.565 0 0 1-.438-1.147zm1.568 1.94a1.925 1.925 0 0 0 1.89-1.944 1.925 1.925 0 0 0-1.923-1.912 1.925 1.925 0 0 0-1.919 1.916c-.004.519.201 1.018.569 1.383.367.365.866.566 1.383.557zM83.635 34.717c-4.555.488-5.042 4.446-5.042 6.15v5.827h4.54V41.08c0-1.221.41-1.83 1.239-1.83.254 0 .516-.006.855-.006v-4.511a7.563 7.563 0 0 0-1.592-.016M59.302 38.932h-3.076v-1.57c0-.54.061-1.741 1.618-1.741 1.326 0 1.458 1.212 1.458 1.741v1.57zm-1.466-8.303c-2.08 0-3.746.631-4.997 1.894-1.253 1.266-1.878 2.965-1.878 5.114v9.07h5.265v-3.4h3.076v3.4h5.438v-9.07c0-2.144-.627-3.849-1.881-5.114-1.255-1.265-2.93-1.897-5.023-1.894zM110.06 37.2c-.54-.723-1.229-1.465-2.047-1.852a5.93 5.93 0 0 0-2.646-.6 6.007 6.007 0 0 0-2.632.604c-.837.394-1.515 1.14-2.05 1.848a4.396 4.396 0 0 0-.81 1.59 7.858 7.858 0 0 0-.254 2.207v5.716h4.523V40.11c0-.26.262-.91 1.213-.91.964 0 1.22.65 1.22.91v6.602h4.561v-5.716a8.319 8.319 0 0 0-.254-2.202 4.442 4.442 0 0 0-.824-1.595M77.219 38.693a5.634 5.634 0 0 0-2.087-3.025 5.995 5.995 0 0 0-6.494-.316 5.983 5.983 0 0 0-2.172 2.232 7.257 7.257 0 0 0-.599 1.535 6.291 6.291 0 0 0-.209 1.606c0 1.758.55 3.187 1.648 4.289 1.102 1.114 2.524 1.677 4.261 1.677.162 0 .408-.02.723-.047a.106.106 0 0 1 .045-.008V42.19c-.25.13-.527.196-.808.196a1.664 1.664 0 0 1-1.658-1.668c0-.92.742-1.666 1.658-1.668.437.003.854.18 1.16.492.306.313.475.735.47 1.173v5.889h4.406v-4.388c.016-.736-.01-1.471-.08-2.203a6.417 6.417 0 0 0-.264-1.32M123.945 40.233a7.598 7.598 0 0 0-.24-1.207 5.578 5.578 0 0 0-5.456-4.045 5.758 5.758 0 0 0-2.23.456 6.097 6.097 0 0 0-1.904 1.303 5.982 5.982 0 0 0-1.669 4.203c0 1.72.466 3.106 1.396 4.15a4.725 4.725 0 0 0 3.657 1.693c.487.012.973-.01 1.457-.063l-.016-4.13a1.59 1.59 0 0 1-.73.164 1.553 1.553 0 0 1-1.156-.498 1.743 1.743 0 0 1-.479-1.215c-.01-.453.163-.891.48-1.215.301-.315.719-.492 1.154-.489.445-.012.874.166 1.181.49.319.321.49.761.472 1.214l-.003.456v4.179c0 .829-.13 1.329-.53 1.637-.656.503-1.732.476-2.582.374-.217-.017-1.361-.113-1.361-.113v4.03s1.547.17 2.246.17c2.203 0 3.818-.505 4.844-1.515 1.027-1.015 1.543-2.599 1.543-4.775v-3.446a16.219 16.219 0 0 0-.074-1.808M92.393 42.475A1.75 1.75 0 0 1 90.77 41.4a1.761 1.761 0 0 1 .37-1.917 1.744 1.744 0 0 1 1.906-.389c.656.27 1.084.91 1.086 1.62.002.466-.18.912-.505 1.243a1.74 1.74 0 0 1-1.233.518m0-7.849c-3.349 0-6.064 2.726-6.064 6.089 0 3.362 2.715 6.088 6.064 6.088 3.35 0 6.065-2.726 6.065-6.088-.002-3.362-2.716-6.087-6.065-6.089"/>
            <path fill="#F58220" d="M0 0h46.68v46.864H0z"/>
            <path fill="#231F20" stroke="#231F20" stroke-width=".5" d="M31.54 19.251c.056.09.12.173.193.25.578.6 1.507.683 2.183.196a1.687 1.687 0 0 0 .511-2.14 1.673 1.673 0 0 0-2.034-.817 1.683 1.683 0 0 0-1.102 1.901l-2.4.996c.103.192.194.391.273.595l2.376-.981zM17.34 24.426l-2.31.955a1.405 1.405 0 0 0-.32-.35 1.664 1.664 0 0 0-2.152.051 1.68 1.68 0 0 0-.314 2.137c.428.695 1.291.979 2.045.673a1.677 1.677 0 0 0 1.007-1.908l2.275-.945a6.802 6.802 0 0 1-.231-.613M27.732 11.13a1.674 1.674 0 0 0-1.664 1.119 1.685 1.685 0 0 0 .594 1.92l-1.133 2.478c.206.075.408.162.604.26l1.12-2.462a1.675 1.675 0 0 0 1.807-.717 1.69 1.69 0 0 0 .085-1.685 1.677 1.677 0 0 0-1.413-.913M20.536 13.86a1.69 1.69 0 0 0 .195-2.195 1.674 1.674 0 0 0-2.134-.512 1.687 1.687 0 0 0-.813 2.046c.271.79 1.08 1.26 1.898 1.105l1.041 2.518c.197-.094.4-.177.606-.246l-1.036-2.518c.087-.06.168-.126.243-.199M15.418 18.31a1.68 1.68 0 0 0-1.645-1.715 1.68 1.68 0 0 0-1.708 1.652 1.68 1.68 0 0 0 1.646 1.715 1.656 1.656 0 0 0 1.413-.739l2.38.991c.08-.2.173-.405.27-.59l-2.39-1.006a1.91 1.91 0 0 0 .034-.309M34.688 26.124a1.678 1.678 0 0 0-1.841-1.5c-.506.052-.961.333-1.233.765l-2.297-.958a5.378 5.378 0 0 1-.231.61l2.287.96a1.677 1.677 0 0 0 1.823 1.968 1.68 1.68 0 0 0 1.492-1.845M23.012 10.594v5.663c.11-.01.216-.012.326-.012.115 0 .217.002.33.012v-5.663a3.211 3.211 0 0 0 2.87-3.363 3.208 3.208 0 0 0-3.198-3.05 3.208 3.208 0 0 0-3.198 3.05 3.211 3.211 0 0 0 2.87 3.363"/>
            <path fill="#231F20" stroke="#231F20" stroke-width=".5" d="M23.012 10.594v5.663c.11-.01.216-.012.326-.012.115 0 .217.002.33.012v-5.663M38.187 19.08a3.214 3.214 0 0 0-3.195 2.886h-5.408c.016.186.022.386.022.577v.08h5.386a3.21 3.21 0 0 0 3.405 2.888 3.215 3.215 0 0 0 2.99-3.317 3.212 3.212 0 0 0-3.2-3.114M31.813 30.332l-3.698-3.709c-.14.168-.29.327-.45.477l3.682 3.703a3.22 3.22 0 0 0 .351 4.407 3.189 3.189 0 0 0 4.402-.124 3.22 3.22 0 0 0 .105-4.42 3.19 3.19 0 0 0-4.392-.334M11.683 22.624h5.385v-.003c0-.025-.006-.051-.006-.08 0-.19.017-.384.03-.575h-5.409a3.207 3.207 0 0 0-3.35-2.882 3.21 3.21 0 0 0-3.04 3.211 3.21 3.21 0 0 0 3.04 3.212 3.207 3.207 0 0 0 3.35-2.883M27.879 18.2l3.936-3.95a3.162 3.162 0 0 0 4.35-.385 3.192 3.192 0 0 0-.157-4.38 3.161 3.161 0 0 0-4.366-.07 3.192 3.192 0 0 0-.295 4.373L27.4 17.747c.17.144.322.293.478.453M19.013 27.1a7.863 7.863 0 0 1-.451-.477l-3.697 3.715a3.215 3.215 0 0 0-4.431.316 3.246 3.246 0 0 0 .09 4.459 3.215 3.215 0 0 0 4.44.135 3.245 3.245 0 0 0 .36-4.445l3.689-3.703zM14.865 14.25l3.932 3.951c.156-.16.313-.31.477-.454l-3.95-3.96a3.214 3.214 0 0 0-.353-4.401 3.183 3.183 0 0 0-4.396.128 3.214 3.214 0 0 0-.096 4.414 3.184 3.184 0 0 0 4.386.323"/>
            <path fill="#231F20" stroke="#231F20" stroke-width=".5" d="M28.27 31.883a4.937 4.937 0 0 0-4.6-4.94v-.789a2.571 2.571 0 0 0 2.248-2.277H27.2l-1.593-1.53a2.569 2.569 0 0 0-.907-.94l.875-.874.42.448.471-.45-.432-.46-.451-.477-.297-.32-.472.456.305.325-1.057 1.07a3.83 3.83 0 0 0-.381-.075V19.47h.538v-.66h-1.717v.66h.53v1.59a2.749 2.749 0 0 0-.367.075l-1.074-1.075.327-.34-.47-.456-.314.334-.453.468-.418.442.47.458.408-.432.885.891a2.567 2.567 0 0 0 .987 4.72v.8a4.942 4.942 0 0 0-4.604 4.938 4.942 4.942 0 0 0 4.604 4.939v.863a2.615 2.615 0 0 0-2.285 2.6c0 .197.02.394.06.588h5.086c.05-.192.074-.39.073-.588a2.612 2.612 0 0 0-2.277-2.6v-.863a4.94 4.94 0 0 0 4.601-4.938"/>
        </g>
    </g>
</svg>
