<svg xmlns="http://www.w3.org/2000/svg" width="86" height="128" viewBox="0 0 86 128">
    <g fill="none" fill-rule="evenodd">
        <path d="M-21 0h128v128H-21z"/>
        <g fill-rule="nonzero">
            <path fill="#000" d="M0 0h85.279v127.46H0z"/>
            <path fill="#FFDE17" d="M8.331 39.44v39.087h25.597S9.278 44.447 8.331 39.44zM38.665 78.527S3.115 38.487 14.49 20.612c0 0 13.983-21.21 62.566 25.74v4.29s-38.864-40.277-55.93-24.31c0 0-12.796 13.108 23.524 52.195h-5.986z"/>
            <path fill="#FFDE17" d="M77.057 56.598v21.93H66.393L57.15 50.641l-8.056 27.885s-33.179-37.422-22.04-47.432c0 0 13.98-16.682 50.003 25.503zM77.057 42.058V8.217h-44.79s27.728 14.54 44.79 33.84z"/>
            <path fill="#FFF" d="M8.17 119.244V86.75h6.519v32.494zM21.654 86.75h11.921c2.07-.068 4.138.14 6.153.619a10.86 10.86 0 0 1 4.871 2.993 14.258 14.258 0 0 1 3.082 5.263 24.067 24.067 0 0 1 1.057 7.683c.049 2.344-.285 4.68-.99 6.915a14.417 14.417 0 0 1-3.458 5.74 11.498 11.498 0 0 1-4.586 2.592c-1.88.514-3.826.746-5.774.689H21.654V86.75zm6.521 5.494v21.523h4.87a17.768 17.768 0 0 0 3.947-.307 6.037 6.037 0 0 0 2.635-1.358 6.93 6.93 0 0 0 1.708-3.132c.498-1.943.72-3.947.66-5.953.07-1.95-.153-3.9-.66-5.783a7.53 7.53 0 0 0-1.849-3.15 6.233 6.233 0 0 0-3.022-1.53 29.505 29.505 0 0 0-5.356-.31h-2.933zM61.02 119.244v-27h-9.588V86.75l25.677-.003v5.497h-9.567v27z"/>
        </g>
    </g>
</svg>
