<svg xmlns="http://www.w3.org/2000/svg" width="128" height="25" viewBox="0 0 128 25">
    <g fill="none" fill-rule="evenodd">
        <path d="M0-52h128V76H0z"/>
        <g fill-rule="nonzero">
            <path fill="#00539B" d="M21.691 1.188h5.984v11.128h7.523v3.235H21.69zM97.523 16.127c-4.662 0-8.585-1.388-8.585-5.212V1.188h5.791v9.284c0 1.797 1.328 2.618 2.794 2.618 1.469 0 2.794-.82 2.794-2.618V1.188h5.792v9.727c0 3.824-3.92 5.212-8.586 5.212M118.241 5.006h6.12c-.32-3.298-4.963-4.283-8.56-4.283-3.596 0-8.279 1.177-8.279 4.774 0 2.63 2.572 3.472 4.374 3.837 1.281.258 3.415.622 4.483.857 1.485.325 2.254.628 2.254 1.503 0 .936-.865 1.414-2.637 1.414-1.68 0-2.686-.522-2.965-1.707h-6.234c.366 3.912 5.377 4.769 9.332 4.769 3.98 0 8.736-.948 8.736-4.826 0-2.104-1.355-3.506-4.693-4.173-1.747-.35-4.167-.804-5.098-.965-1.234-.215-1.675-.66-1.675-1.266 0-.625.6-1.281 2.33-1.281 1.462 0 2.252.426 2.512 1.347M82.442 10.262c4.308 0 5.405-2.74 5.405-4.492 0-1.611-.927-4.582-5.399-4.582H70.864V15.55h5.688v-5.288h5.89zM76.55 7.127V4.326h3.796c.945 0 1.754.442 1.754 1.353 0 .805-.464 1.448-1.761 1.448H76.55zM42.396 1.537l.164-.349h6.001l-6.244 9.527v4.836h-5.68v-4.836L30.41 1.188h5.982l.168.35 2.707 4.755c.18.305.232.305.428 0l2.701-4.756zM60.552 15.55l.107-.286 3.052-7.095c.078-.187.261-.137.263.027v7.355h4.9V1.188h-5.92l-.11.31-3.648 8.238c-.135.312-.26.31-.395 0l-3.647-8.238-.109-.31h-5.92V15.55h4.9V8.196c.002-.163.185-.213.265-.027l3.049 7.095.107.287h3.106zM20.34 8.37c0 4.824-4.185 7.731-10.02 7.731C4.483 16.101.3 13.194.3 8.371.3 3.542 4.483.637 10.32.637c5.835 0 10.02 2.905 10.02 7.732m-6.026 0c0-2.906-1.502-4.698-3.994-4.698-2.493 0-3.995 1.792-3.995 4.698 0 2.905 1.502 4.697 3.995 4.697 2.492 0 3.994-1.792 3.994-4.697"/>
            <path fill="#EEB111" d="M0 22.711l62.667 1.614 62.668-1.614v-.739l-62.668-1.617L0 21.972z"/>
            <path fill="#00539B" d="M126.672.976a.533.533 0 0 1 .491.554.626.626 0 0 1-.422.543l.385.828h-.341l-.404-.845h-.458v.845h-.354V.976h1.103zm-.75.814h.688a.25.25 0 0 0 .21-.28.271.271 0 0 0-.233-.264h-.664v.544z"/>
            <path fill="#00539B" d="M126.298 3.63a1.689 1.689 0 0 0 .453-3.314 1.687 1.687 0 1 0-.453 3.314m-1.411-1.699a1.412 1.412 0 1 1 2.824 0 1.412 1.412 0 0 1-2.824 0"/>
        </g>
    </g>
</svg>
