<svg xmlns="http://www.w3.org/2000/svg" width="128" height="40" viewBox="0 0 128 40">
    <g fill="none" fill-rule="evenodd">
        <path d="M0-44h128V84H0z"/>
        <g transform="translate(0 .5)">
            <ellipse cx="24.12" cy="15.738" fill="#000" fill-rule="nonzero" rx="15.81" ry="15.738"/>
            <path stroke="#000" stroke-linecap="round" stroke-width=".615" d="M24.65 1.445h22.29M24.65 5.63h22.29M24.65 9.918h22.29M24.65 14.615h22.29M24.521 19.081h22.291M24.65 23.395h22.29M24.65 27.887h22.29M1.521 2.976h22.291M1.521 7.672h22.291M1.521 12.369h22.291M1.393 17.27h22.29M1.521 21.966h22.291M1.521 26.866h22.291"/>
            <path fill="#FFF" fill-rule="nonzero" d="M0 3.231h48.12v2.093H0zM0 7.928h48.073v1.685H0zM.004 12.675h48.068v1.634H.004zM.064 17.524h48.009v1.225H.064zM0 22.221h48.068v1H0zM0 27.121h48.068v1H0z"/>
            <path fill="#000" fill-rule="nonzero" d="M3.107 38.669v.21a36.13 36.13 0 0 0-.924-.023l-1.02.023v-.21c.16.004.318-.007.474-.035a.217.217 0 0 0 .119-.077.838.838 0 0 0 .05-.32 61.3 61.3 0 0 0 .016-.933v-1.522c0-.298-.004-.59-.01-.874a1.03 1.03 0 0 0-.048-.37.224.224 0 0 0-.122-.086 2.364 2.364 0 0 0-.478-.034v-.21c.42.014.745.022.973.022.22 0 .544-.008.97-.023v.21a2.34 2.34 0 0 0-.475.035.216.216 0 0 0-.116.077.837.837 0 0 0-.05.32c-.003.043-.008.354-.016.933v1.522c0 .298.003.589.01.871-.007.126.01.252.048.372.029.042.072.073.122.087.157.028.317.04.477.035zM4.466 38.88v-.211c.155.008.31-.01.459-.053a.123.123 0 0 0 .066-.062c.033-.112.049-.228.047-.345.01-.289.016-.538.016-.748v-2.676a.273.273 0 0 0-.132-.282.285.285 0 0 0-.137-.067 2.6 2.6 0 0 0-.345-.018v-.21c.38.008.62.012.718.012.166 0 .332-.004.496-.013l.408.538.675.837.985 1.194c.316.381.57.68.76.9.122.144.225.258.307.34v-2.395c0-.214-.007-.466-.023-.754a1.25 1.25 0 0 0-.043-.338.138.138 0 0 0-.07-.062c-.147-.04-.3-.057-.452-.05v-.21c.26.009.523.013.79.013.251 0 .48-.004.684-.013v.21a1.46 1.46 0 0 0-.455.05.121.121 0 0 0-.067.066c-.033.112-.049.228-.046.345-.011.289-.017.537-.017.745v1.58c0 .32.006.917.017 1.791l-.34-.098-.08-.017a.117.117 0 0 1-.037-.02 1.351 1.351 0 0 1-.125-.133 16.599 16.599 0 0 1-.403-.472l-.427-.542-2.343-2.817v2.55c0 .217.007.473.023.768-.002.115.013.229.043.34.014.03.039.053.07.066.147.04.3.057.452.05v.21a8.171 8.171 0 0 0-.641-.023c-.256 0-.533.008-.833.023zM11.272 35.296h-.205a13.726 13.726 0 0 0-.033-1.089c.24.009.616.02 1.13.033.416.009.694.013.833.013.15 0 .497-.006 1.041-.02.394-.008.682-.017.863-.026-.027.246-.044.609-.053 1.09h-.212l-.026-.317c-.018-.19-.03-.3-.036-.325a.111.111 0 0 0-.029-.056.133.133 0 0 0-.054-.027 3.895 3.895 0 0 0-.33-.026 8.236 8.236 0 0 0-.45-.016h-.403c-.022.21-.033.494-.033.851v1.923c0 .298.003.589.01.871-.007.126.01.252.047.372.03.042.073.073.123.087.157.028.317.04.477.035v.21c-.394-.017-.69-.026-.889-.026-.086 0-.43.009-1.031.026v-.21c.16.004.32-.007.477-.035a.2.2 0 0 0 .115-.077.775.775 0 0 0 .052-.319l.017-.934v-1.916c0-.092-.002-.193-.007-.303l-.02-.555h-.492a5.473 5.473 0 0 0-.678.032.144.144 0 0 0-.102.043c-.04.116-.063.237-.066.359l-.036.332zM16.26 38.88v-.211c.153.008.307-.01.455-.053a.123.123 0 0 0 .066-.062c.033-.112.049-.229.047-.345.013-.29.02-.539.02-.75v-1.678c0-.298-.004-.59-.01-.874.006-.125-.01-.25-.048-.37a.225.225 0 0 0-.123-.085 2.368 2.368 0 0 0-.477-.034v-.21l.942.019.998-.017c.478-.006.825-.01 1.041-.01.207 0 .413.012.618.037a2.568 2.568 0 0 0-.072.325c-.005.02-.025.248-.06.685h-.208a3.52 3.52 0 0 0-.043-.612 1.506 1.506 0 0 0-.4-.102 5.992 5.992 0 0 0-.74-.046c-.053 0-.171.004-.354.013-.183.009-.314.016-.393.023-.01.243-.016.47-.02.682l-.013 1.108c.257.015.494.023.71.023.224.002.448-.01.671-.036.05 0 .099-.02.136-.053a.783.783 0 0 0 .053-.27l.02-.23h.198v.062l-.017.685.017.766h-.232l-.01-.223a.75.75 0 0 0-.044-.303.216.216 0 0 0-.144-.082 4.318 4.318 0 0 0-.73-.04c-.148 0-.357.006-.628.017-.012.219-.017.545-.017.977 0 .406.006.714.017.924.316.025.672.037 1.066.037.199.004.399-.005.597-.027.113-.016.224-.046.33-.089.033-.09.06-.182.08-.276.047-.195.08-.342.095-.44h.221a8.88 8.88 0 0 0-.086 1.1c-.229.032-.46.047-.69.044l-1.974-.023-.866.023zM21.3 34.418v-.21l.393.008.635.014c.125 0 .32-.004.585-.012.344-.011.543-.017.598-.017.311-.015.622.022.92.111a.895.895 0 0 1 .449.364c.104.164.16.354.158.548a1.139 1.139 0 0 1-.149.55 1.24 1.24 0 0 1-.43.453c-.227.136-.476.23-.736.28.055.076.185.247.39.512l.834 1.09c.237.305.376.475.415.51a.201.201 0 0 0 .06.033c.072.015.145.02.218.017v.21a4.838 4.838 0 0 0-.437-.023c-.13 0-.289.008-.477.023a14.043 14.043 0 0 1-.722-.963 13.25 13.25 0 0 0-.498-.663c-.232-.294-.453-.56-.663-.799l.034-.098c.114.006.201.01.26.01.33.023.656-.078.913-.283a.962.962 0 0 0 .31-.747.818.818 0 0 0-.267-.644 1.188 1.188 0 0 0-.81-.238 2.23 2.23 0 0 0-.668.102 9.96 9.96 0 0 0-.02.332c-.002.03-.01.35-.023.957v1.46c0 .297.006.588.017.87-.008.126.007.252.044.372a.22.22 0 0 0 .124.087c.156.028.315.04.473.035v.21a17.71 17.71 0 0 0-.863-.023c-.211 0-.567.008-1.067.023v-.21c.158.004.317-.007.473-.035a.218.218 0 0 0 .119-.077.837.837 0 0 0 .05-.32c.002-.045.007-.356.016-.933v-1.522c0-.298-.004-.59-.01-.874.006-.126-.01-.251-.048-.37a.224.224 0 0 0-.123-.086 2.364 2.364 0 0 0-.477-.034zM26.85 38.88v-.211c.154.008.31-.01.458-.053a.123.123 0 0 0 .067-.062c.033-.112.048-.228.046-.345.011-.289.017-.538.017-.748v-2.676a.273.273 0 0 0-.132-.282.285.285 0 0 0-.138-.067 2.6 2.6 0 0 0-.345-.018v-.21c.38.008.62.012.718.012.167 0 .332-.004.496-.013l.408.538.675.837.986 1.194c.315.381.569.68.76.9.122.144.224.258.307.34v-2.395c0-.214-.008-.466-.023-.754a1.249 1.249 0 0 0-.043-.338.138.138 0 0 0-.07-.062c-.147-.04-.3-.057-.453-.05v-.21c.26.009.524.013.79.013.252 0 .48-.004.685-.013v.21a1.46 1.46 0 0 0-.456.05.122.122 0 0 0-.066.066 1.121 1.121 0 0 0-.047.345c-.01.289-.016.537-.016.745v1.58c0 .32.005.917.016 1.791l-.34-.098-.08-.017a.117.117 0 0 1-.036-.02 1.362 1.362 0 0 1-.126-.133 16.738 16.738 0 0 1-.403-.472l-.426-.542-2.344-2.817v2.55c0 .217.008.473.023.768a1.23 1.23 0 0 0 .043.34c.015.03.04.053.07.066.147.04.3.057.453.05v.21a8.17 8.17 0 0 0-.642-.023c-.255 0-.533.008-.833.023zM33.387 38.88v-.225c.11.003.219-.004.326-.021a.286.286 0 0 0 .12-.069c.065-.08.118-.17.157-.265.04-.081.183-.39.43-.924l.827-1.856c.09-.204.284-.658.58-1.362h.211l1.414 3.3c.229.535.381.87.456 1.007.03.063.077.116.138.15a.98.98 0 0 0 .336.04v.224a13.318 13.318 0 0 0-.722-.033l-1.065.033v-.224c.15.002.3-.006.45-.023a.2.2 0 0 0 .107-.047.111.111 0 0 0 .028-.078.533.533 0 0 0-.046-.187l-.407-1.007h-1.914l-.359.846a.988.988 0 0 0-.096.332.109.109 0 0 0 .027.076c.03.031.07.052.112.059.142.022.286.032.43.03v.223c-.373-.02-.652-.03-.837-.03-.214 0-.449.01-.703.03zm1.54-1.847h1.666l-.822-1.98-.844 1.98zM39.909 35.296h-.205a13.743 13.743 0 0 0-.033-1.089c.24.009.617.02 1.13.033.417.009.694.013.833.013.15 0 .497-.006 1.041-.02.395-.008.682-.017.863-.026-.027.246-.044.609-.053 1.09h-.212l-.026-.317c-.018-.19-.03-.3-.036-.325a.11.11 0 0 0-.028-.056.133.133 0 0 0-.055-.027 3.89 3.89 0 0 0-.33-.026 8.225 8.225 0 0 0-.45-.016h-.403c-.022.21-.033.494-.033.851v1.923c0 .298.003.589.01.871-.007.126.01.252.048.372.029.042.072.073.122.087.157.028.317.04.477.035v.21c-.394-.017-.69-.026-.889-.026-.086 0-.43.009-1.031.026v-.21c.16.004.32-.007.477-.035a.2.2 0 0 0 .115-.077.775.775 0 0 0 .053-.319c0-.046.005-.357.016-.934v-1.916c0-.092-.002-.193-.007-.303l-.02-.555h-.492a5.474 5.474 0 0 0-.677.032.144.144 0 0 0-.103.043c-.04.116-.063.237-.066.359l-.036.332zM46.764 38.669v.21a36.136 36.136 0 0 0-.924-.023l-1.02.023v-.21c.159.004.318-.007.474-.035a.218.218 0 0 0 .118-.077.837.837 0 0 0 .05-.32c.002-.045.008-.356.016-.933v-1.522c0-.298-.003-.59-.01-.874.007-.126-.01-.251-.048-.37a.224.224 0 0 0-.122-.086 2.364 2.364 0 0 0-.478-.034v-.21c.42.014.745.022.974.022.22 0 .543-.008.97-.023v.21a2.341 2.341 0 0 0-.475.035.216.216 0 0 0-.117.077.836.836 0 0 0-.05.32c-.002.043-.008.354-.016.933v1.522c0 .298.003.589.01.871-.006.126.01.252.048.372.03.042.073.073.122.087.158.028.318.04.478.035zM48.096 36.573c-.003-.327.05-.652.157-.961.11-.3.287-.572.52-.793.236-.23.516-.41.824-.531a2.875 2.875 0 0 1 1.05-.18 3.04 3.04 0 0 1 .992.153c.269.086.517.224.732.405.182.156.334.343.452.551.09.166.157.343.2.527.05.212.075.43.074.648.019.692-.252 1.36-.749 1.846a2.582 2.582 0 0 1-1.889.737 2.747 2.747 0 0 1-.968-.168 1.973 1.973 0 0 1-.76-.499 2.195 2.195 0 0 1-.473-.802c-.105-.3-.16-.616-.162-.933zm.687-.273c0 .213.022.426.063.635.035.19.088.376.159.556.094.245.235.47.415.663.16.17.354.306.571.394.223.087.46.13.7.127.327.008.65-.082.925-.258.266-.177.47-.43.587-.727.134-.344.2-.712.193-1.081a3.196 3.196 0 0 0-.139-.964 2.013 2.013 0 0 0-.228-.489 1.561 1.561 0 0 0-.85-.656 2.005 2.005 0 0 0-.677-.112 1.783 1.783 0 0 0-.922.234 1.459 1.459 0 0 0-.597.676 2.408 2.408 0 0 0-.2 1.002zM54.432 38.88v-.211c.155.008.31-.01.459-.053a.123.123 0 0 0 .067-.062 1.15 1.15 0 0 0 .046-.345c.011-.289.017-.538.017-.748v-2.676a.273.273 0 0 0-.133-.282.285.285 0 0 0-.137-.067 2.604 2.604 0 0 0-.345-.018v-.21c.38.008.62.012.718.012.166 0 .332-.004.496-.013l.408.538.675.837.986 1.194c.315.381.568.68.76.9.122.144.224.258.307.34v-2.395c0-.214-.008-.466-.024-.754a1.249 1.249 0 0 0-.043-.338.138.138 0 0 0-.069-.062c-.147-.04-.3-.057-.453-.05v-.21c.26.009.524.013.79.013.251 0 .48-.004.684-.013v.21a1.46 1.46 0 0 0-.455.05.121.121 0 0 0-.067.066c-.033.112-.049.228-.046.345-.011.289-.017.537-.017.745v1.58c0 .32.006.917.017 1.791l-.34-.098-.08-.017a.117.117 0 0 1-.036-.02 1.364 1.364 0 0 1-.126-.133 16.738 16.738 0 0 1-.403-.472l-.427-.542-2.343-2.817v2.55c0 .217.008.473.023.768-.001.115.013.229.043.34.014.03.039.053.07.066.147.04.3.057.452.05v.21a8.17 8.17 0 0 0-.64-.023c-.256 0-.534.008-.834.023zM60.97 38.88v-.225c.11.003.218-.004.326-.021a.286.286 0 0 0 .12-.069c.064-.08.117-.17.157-.265.04-.081.183-.39.43-.924l.827-1.856c.09-.204.284-.658.58-1.362h.21l1.414 3.3c.23.535.382.87.457 1.007a.34.34 0 0 0 .137.15.981.981 0 0 0 .336.04v.224a13.308 13.308 0 0 0-.721-.033l-1.066.033v-.224c.15.002.3-.006.45-.023a.2.2 0 0 0 .107-.047.112.112 0 0 0 .029-.078.53.53 0 0 0-.047-.187l-.406-1.007h-1.914l-.359.846a.986.986 0 0 0-.096.332.109.109 0 0 0 .027.076c.03.031.07.052.112.059.142.022.286.032.43.03v.223c-.373-.02-.652-.03-.837-.03-.215 0-.449.01-.703.03zm1.54-1.847h1.666l-.823-1.98-.843 1.98zM67.531 38.88v-.172a1.05 1.05 0 0 0 .259-.151.156.156 0 0 0 .046-.076c.027-.13.04-.262.039-.394.01-.3.016-.48.016-.536v-1.769c0-.298-.003-.59-.01-.874a1.03 1.03 0 0 0-.047-.37.224.224 0 0 0-.123-.086 2.363 2.363 0 0 0-.477-.034v-.21c.537.014.87.022.998.022.14 0 .457-.008.948-.023v.21c-.16-.004-.32.008-.477.035a.216.216 0 0 0-.117.077.834.834 0 0 0-.05.32c-.003.043-.008.354-.017.933v2.21c0 .23.006.417.017.561.251.016.5.023.747.023.439.02.878-.02 1.306-.118.03-.074.056-.15.076-.227l.132-.546h.221c-.048.327-.096.71-.142 1.151a2.11 2.11 0 0 1-.215.033c-.114.007-.29.01-.529.01l-1.956-.023c-.212 0-.427.008-.645.023zM75.04 38.88v-.159a4.31 4.31 0 0 0 .317-.197c.014-.149.025-.356.033-.621.016-.451.023-.764.023-.94v-1.34c0-.214-.005-.466-.016-.755a1.116 1.116 0 0 0-.047-.339.139.139 0 0 0-.07-.062 1.46 1.46 0 0 0-.455-.05v-.21a25.387 25.387 0 0 0 1.628.005c.327-.008.581-.011.762-.011.443-.017.886.053 1.302.205.34.146.63.385.836.689.237.347.357.76.344 1.18.002.32-.052.637-.162.937a2.525 2.525 0 0 1-1.034 1.283 2.682 2.682 0 0 1-.665.287 3.72 3.72 0 0 1-.956.097c-.135 0-.316-.004-.545-.011-.3-.008-.496-.012-.588-.012-.135 0-.37.008-.707.023zm1.021-.36c.254.043.51.064.767.063.247.003.494-.021.736-.072.19-.04.375-.11.545-.204.168-.103.316-.234.438-.388a1.79 1.79 0 0 0 .325-.656 3 3 0 0 0 .114-.827 2.324 2.324 0 0 0-.22-1.05 1.509 1.509 0 0 0-.662-.672 2.636 2.636 0 0 0-1.216-.234c-.277 0-.553.022-.827.063-.006.107-.012.298-.016.572l-.013.476v1.312l.01 1.02c.002.155.008.354.02.598zM80.903 38.88v-.225c.109.003.218-.004.326-.021a.286.286 0 0 0 .119-.069c.065-.08.118-.17.157-.265.04-.081.183-.39.43-.924l.828-1.856c.09-.204.283-.658.58-1.362h.21l1.414 3.3c.23.535.382.87.457 1.007.029.063.077.116.137.15a.98.98 0 0 0 .336.04v.224a13.318 13.318 0 0 0-.722-.033l-1.065.033v-.224c.15.002.3-.006.45-.023a.2.2 0 0 0 .107-.047.111.111 0 0 0 .028-.078.533.533 0 0 0-.046-.187l-.406-1.007h-1.914l-.36.846a.988.988 0 0 0-.095.332.109.109 0 0 0 .026.076c.03.031.07.052.113.059.142.022.286.032.43.03v.223c-.373-.02-.652-.03-.838-.03-.214 0-.448.01-.702.03zm1.54-1.847h1.666l-.823-1.98-.843 1.98zM87.113 35.296h-.205a13.732 13.732 0 0 0-.033-1.089c.24.009.617.02 1.13.033.417.009.694.013.833.013.15 0 .497-.006 1.041-.02.395-.008.682-.017.863-.026-.027.246-.044.609-.053 1.09h-.212l-.026-.317c-.018-.19-.03-.3-.036-.325a.11.11 0 0 0-.028-.056.133.133 0 0 0-.055-.027 3.89 3.89 0 0 0-.33-.026 8.226 8.226 0 0 0-.45-.016h-.403c-.022.21-.033.494-.033.851v1.923c0 .298.003.589.01.871-.007.126.01.252.048.372.029.042.072.073.122.087.158.028.318.04.478.035v.21c-.395-.017-.691-.026-.89-.026-.086 0-.43.009-1.03.026v-.21c.159.004.319-.007.476-.035a.2.2 0 0 0 .115-.077.774.774 0 0 0 .053-.319c0-.046.005-.357.016-.934v-1.916c0-.092-.002-.193-.006-.303l-.02-.555h-.493a5.477 5.477 0 0 0-.677.032.144.144 0 0 0-.103.043 1.16 1.16 0 0 0-.066.359l-.036.332zM91.332 38.88v-.225c.109.003.218-.004.326-.021a.286.286 0 0 0 .119-.069c.065-.08.118-.17.157-.265.04-.081.183-.39.43-.924l.828-1.856c.09-.204.283-.658.579-1.362h.211l1.414 3.3c.23.535.382.87.457 1.007a.34.34 0 0 0 .137.15.98.98 0 0 0 .336.04v.224a13.316 13.316 0 0 0-.722-.033l-1.065.033v-.224c.15.002.3-.006.45-.023a.2.2 0 0 0 .107-.047.112.112 0 0 0 .028-.078.533.533 0 0 0-.046-.187l-.406-1.007h-1.914l-.36.846a.986.986 0 0 0-.096.332.11.11 0 0 0 .027.076c.03.031.07.052.113.059.142.022.285.032.43.03v.223c-.373-.02-.652-.03-.838-.03-.214 0-.448.01-.702.03zm1.54-1.847h1.666l-.823-1.98-.844 1.98zM104.508 38.623a5.864 5.864 0 0 1-.823.243c-.353.07-.711.106-1.07.109a2.995 2.995 0 0 1-1.36-.298 2.19 2.19 0 0 1-.918-.834 2.402 2.402 0 0 1-.324-1.267 2.27 2.27 0 0 1 .815-1.83c.208-.177.442-.322.696-.427a3.592 3.592 0 0 1 1.315-.21c.26.003.518.031.772.083.27.054.574.128.914.222a2.708 2.708 0 0 0-.076.33c-.018.107-.041.327-.07.66h-.201l-.017-.374a5.935 5.935 0 0 0-.006-.138.386.386 0 0 0-.043-.135.774.774 0 0 0-.285-.214 3.542 3.542 0 0 0-.557-.171 2.782 2.782 0 0 0-.523-.043 2.13 2.13 0 0 0-1.088.266 1.707 1.707 0 0 0-.696.764c-.16.34-.24.71-.236 1.085-.006.406.088.807.276 1.167.167.328.424.602.74.793.33.188.704.283 1.083.274.19 0 .378-.018.563-.055.16-.03.316-.082.461-.155.024-.14.034-.28.03-.421v-.365c.01-.114 0-.229-.03-.34-.02-.032-.073-.057-.16-.073a5.047 5.047 0 0 0-.6-.038v-.2l1.031.022c.201 0 .406-.008.615-.023l.02.158-.248.145a5.821 5.821 0 0 0-.04.648c.002.214.015.429.04.642zM105.929 34.418v-.21l.393.008.635.014c.125 0 .32-.004.585-.012.343-.011.543-.017.598-.017.31-.015.622.022.92.111a.895.895 0 0 1 .448.364c.105.164.16.354.159.548a1.139 1.139 0 0 1-.149.55 1.24 1.24 0 0 1-.431.453c-.227.136-.476.23-.735.28.055.076.185.247.39.512l.834 1.09c.237.305.376.475.415.51a.202.202 0 0 0 .06.033c.071.015.145.02.218.017v.21a4.834 4.834 0 0 0-.438-.023c-.129 0-.288.008-.476.023a14.043 14.043 0 0 1-.723-.963 13.25 13.25 0 0 0-.497-.663c-.232-.294-.453-.56-.663-.799l.033-.098c.115.006.202.01.261.01.33.023.655-.078.913-.283a.962.962 0 0 0 .31-.747.819.819 0 0 0-.267-.644 1.188 1.188 0 0 0-.81-.238c-.227 0-.452.034-.668.102-.009.118-.015.229-.02.332-.002.03-.01.35-.023.957v1.46c0 .297.006.588.017.87-.008.126.007.252.044.372a.22.22 0 0 0 .123.087c.157.028.315.04.474.035v.21c-.313-.015-.6-.023-.863-.023-.211 0-.567.008-1.067.023v-.21c.158.004.317-.007.473-.035a.217.217 0 0 0 .119-.077.837.837 0 0 0 .049-.32c.003-.045.008-.356.016-.933v-1.522c0-.298-.003-.59-.01-.874a1.03 1.03 0 0 0-.047-.37.225.225 0 0 0-.123-.086 2.366 2.366 0 0 0-.477-.034zM111.411 36.573c-.003-.327.05-.652.157-.961.11-.301.288-.572.52-.793.237-.23.516-.41.824-.531a2.874 2.874 0 0 1 1.05-.18 3.04 3.04 0 0 1 .993.153c.268.086.517.224.732.405.18.156.333.343.45.551.09.166.158.343.2.527.052.212.077.43.075.648.02.692-.252 1.36-.749 1.846a2.582 2.582 0 0 1-1.888.737 2.747 2.747 0 0 1-.969-.168 1.973 1.973 0 0 1-.76-.499 2.194 2.194 0 0 1-.473-.802c-.105-.3-.16-.616-.162-.933zm.688-.273c0 .213.021.426.063.635.034.19.087.376.158.556.095.245.235.47.415.663.16.17.355.306.572.394.222.087.46.13.699.127.327.008.65-.082.925-.258.266-.177.471-.43.587-.727.135-.344.2-.712.193-1.081a3.196 3.196 0 0 0-.138-.964 2.021 2.021 0 0 0-.228-.489 1.561 1.561 0 0 0-.85-.656 2.005 2.005 0 0 0-.677-.112 1.783 1.783 0 0 0-.923.234 1.459 1.459 0 0 0-.596.676 2.408 2.408 0 0 0-.2 1.002zM117.685 34.418v-.21c.36.014.693.022 1.002.022.313 0 .623-.008.932-.023v.21a2.348 2.348 0 0 0-.474.035.199.199 0 0 0-.115.077.774.774 0 0 0-.052.32c-.003.043-.009.354-.017.933v1.216a3.01 3.01 0 0 0 .091.933.86.86 0 0 0 .29.373c.123.084.262.145.41.179.187.047.38.07.574.067.223.004.445-.027.658-.09.158-.043.305-.118.431-.22a.86.86 0 0 0 .215-.291c.056-.142.09-.291.103-.443.023-.236.033-.474.031-.711v-1.013c0-.298-.005-.59-.017-.874a1.016 1.016 0 0 0-.044-.37.224.224 0 0 0-.123-.086 2.348 2.348 0 0 0-.474-.034v-.21c.363.014.628.022.795.022.152 0 .426-.008.822-.023v.21a2.34 2.34 0 0 0-.476.035.216.216 0 0 0-.116.077.838.838 0 0 0-.05.32c-.002.043-.006.355-.013.933v1.102c.019.381-.02.763-.114 1.134a1.283 1.283 0 0 1-.418.569 1.636 1.636 0 0 1-.587.286c-.55.141-1.13.135-1.677-.018a1.393 1.393 0 0 1-.569-.316 1.097 1.097 0 0 1-.267-.4 3.092 3.092 0 0 1-.093-.904v-1.453c0-.298-.003-.59-.01-.874.007-.126-.01-.25-.048-.37a.224.224 0 0 0-.122-.086 2.365 2.365 0 0 0-.478-.034zM123.978 34.418v-.21c.443.014.793.022 1.05.022.173 0 .356-.002.55-.007l.518-.019.159-.003c.28-.011.56.028.826.115.192.07.356.198.47.367.113.17.172.37.168.574-.001.2-.05.397-.14.575a1.329 1.329 0 0 1-.408.486 1.771 1.771 0 0 1-.559.284 1.57 1.57 0 0 1-.45.06 2.475 2.475 0 0 1-.456-.046l-.07-.244c.152.04.307.063.464.07a.977.977 0 0 0 .47-.121.827.827 0 0 0 .348-.363 1.16 1.16 0 0 0 .124-.535 1.083 1.083 0 0 0-.121-.513.789.789 0 0 0-.367-.347 1.366 1.366 0 0 0-.596-.119 2.28 2.28 0 0 0-.675.112c-.02.232-.03.596-.03 1.091v1.657c0 .298.004.589.01.871-.006.126.01.252.048.372a.22.22 0 0 0 .123.087c.157.028.317.04.477.035v.21a26.565 26.565 0 0 0-.899-.023c-.075 0-.42.008-1.034.023v-.21c.158.004.317-.007.473-.035a.218.218 0 0 0 .119-.077.84.84 0 0 0 .049-.32c.003-.045.008-.356.016-.933v-1.522c0-.298-.003-.59-.01-.874.007-.126-.01-.25-.047-.37a.225.225 0 0 0-.123-.086 2.363 2.363 0 0 0-.477-.034zM61.193 29.597v1.353c-3.01-.099-4.989-.148-5.936-.148l-6.55.148v-1.353c1.662-.028 2.676-.102 3.042-.222.302-.076.57-.25.761-.496.169-.281.275-.964.317-2.049.017-.295.053-2.294.106-5.998v-9.779c0-1.915-.021-3.787-.064-5.617-.042-1.338-.145-2.13-.308-2.377a1.443 1.443 0 0 0-.785-.549c-.361-.12-1.384-.193-3.069-.222V.936c2.7.098 4.784.148 6.254.148 1.413 0 3.49-.05 6.232-.148v1.352c-1.676.029-2.694.103-3.053.222a1.392 1.392 0 0 0-.75.496c-.169.282-.274.965-.316 2.05-.018.281-.054 2.28-.107 5.997v9.78c0 1.914.022 3.78.064 5.596.043 1.338.145 2.133.308 2.387.188.272.466.47.786.56.36.119 1.383.193 3.068.221zM64.293 30.95v-1.015a27.762 27.762 0 0 0 2.039-1.268c.085-.956.155-2.286.212-3.989.099-2.898.148-4.91.149-6.035v-8.61c0-1.378-.036-2.996-.107-4.853-.057-1.168-.156-1.893-.299-2.174a.892.892 0 0 0-.448-.401c-.47-.197-1.445-.302-2.926-.317V.936c2.067.07 3.893.106 5.478.105a224.5 224.5 0 0 0 4.98-.074c2.102-.049 3.733-.074 4.894-.074 3.468 0 6.257.44 8.366 1.32 2.11.88 3.9 2.356 5.373 4.426 1.472 2.07 2.208 4.597 2.208 7.582a17.206 17.206 0 0 1-1.04 6.02 16.22 16.22 0 0 1-2.822 4.911 15.575 15.575 0 0 1-3.82 3.327 17.23 17.23 0 0 1-4.275 1.848c-1.493.415-3.54.623-6.143.623-.863 0-2.03-.025-3.501-.074a191.33 191.33 0 0 0-3.777-.074c-.863 0-2.377.05-4.54.148zm6.561-2.304c1.628.273 3.276.408 4.927.402 1.587.02 3.172-.136 4.724-.465a12.424 12.424 0 0 0 3.504-1.31 10.68 10.68 0 0 0 2.813-2.492c.906-1.098 1.603-2.502 2.092-4.213.49-1.728.737-3.516.733-5.312 0-2.619-.471-4.868-1.413-6.747a9.688 9.688 0 0 0-4.257-4.32C82.08 3.19 79.475 2.69 76.163 2.69a36.035 36.035 0 0 0-5.309.402c-.042.69-.077 1.915-.106 3.674l-.085 3.063v8.426l.064 6.547c.014 1 .056 2.281.127 3.844zM126.254 29.301a37.623 37.623 0 0 1-5.287 1.564c-2.266.45-4.57.683-6.88.698-3.27 0-6.18-.638-8.727-1.913a14.07 14.07 0 0 1-5.903-5.358c-1.388-2.297-2.082-5.01-2.081-8.138 0-2.748.499-5.083 1.497-7.007a15.112 15.112 0 0 1 3.737-4.745 16.798 16.798 0 0 1 4.47-2.748c2.279-.901 5.096-1.352 8.45-1.352 1.667.024 3.327.204 4.959.539 1.734.345 3.69.82 5.871 1.426-.207.694-.37 1.4-.488 2.114-.114.69-.262 2.107-.446 4.248h-1.295l-.107-2.41a39.464 39.464 0 0 0-.042-.887 2.486 2.486 0 0 0-.276-.866c-.382-.508-.991-.966-1.826-1.374a22.773 22.773 0 0 0-3.578-1.1 17.89 17.89 0 0 0-3.366-.274c-2.69 0-5.018.57-6.986 1.712a10.962 10.962 0 0 0-4.47 4.904 16.027 16.027 0 0 0-1.518 6.975c0 2.776.591 5.273 1.773 7.493 1.182 2.219 2.768 3.917 4.757 5.094 1.988 1.176 4.306 1.765 6.954 1.764a17.96 17.96 0 0 0 3.62-.359 11.28 11.28 0 0 0 2.962-.993c.154-.894.218-1.8.191-2.706v-2.346c0-1.24-.063-1.965-.19-2.177-.128-.211-.471-.37-1.03-.476-.56-.105-1.845-.186-3.854-.243v-1.289l6.625.148c1.287 0 2.604-.05 3.95-.148l.126 1.015-1.592.93a37.403 37.403 0 0 0-.255 4.163c.007 1.378.092 2.754.255 4.122z"/>
        </g>
    </g>
</svg>
