<svg xmlns="http://www.w3.org/2000/svg" width="128" height="24" viewBox="0 0 128 24">
    <g fill="none" fill-rule="evenodd">
        <path d="M0-52h128V76H0z"/>
        <g fill="#000" fill-rule="nonzero">
            <path d="M46.712 23.87c-7.04.025-12.034-4.857-12.056-11.785C34.634 5.03 39.543.026 46.502.007c7.213-.02 12.241 4.85 12.258 11.871.016 7.077-4.897 11.967-12.048 11.992zm-6.955-11.752c.046.397.064 1.037.2 1.651.589 2.664 2.075 4.607 4.84 5.294 2.656.66 5.095.166 6.999-1.906 1.67-1.818 2.077-4.051 1.77-6.401-.815-6.248-7.257-7.495-10.847-4.983-2.123 1.485-2.877 3.644-2.962 6.345zM21.784 4.95L18.34 7.876c-.597-.62-1.084-1.287-1.72-1.759-2.324-1.72-4.91-1.997-7.542-.875-2.531 1.08-3.55 3.265-3.796 5.837-.147 1.533.031 3.045.682 4.47 1.392 3.046 4.72 4.422 8.297 3.44 1.624-.447 2.612-1.181 4.017-3.016l1.733 1.48c.583.497 1.168.993 1.747 1.484-2.303 3.9-7.098 5.653-12.284 4.704-5.55-1.016-9.14-5.305-9.455-11.125-.3-5.56 3.058-10.484 8.158-11.96 5.406-1.565 11.14.266 13.607 4.396zM116.79 11.36c1.457-1.745 2.952-3.482 4.384-5.268 1.01-1.258 1.332-2.77 1.392-4.342.016-.42.002-.841.002-1.315h5.346c.065 2.59-.301 5.069-1.85 7.19-1.224 1.679-2.643 3.22-3.98 4.817-.355.425-.724.838-1.088 1.255a6.38 6.38 0 0 0-1.641 4.544c.048 1.73.01 3.461.01 5.233h-5.313v-.642c-.001-1.545-.038-3.09.005-4.634a6.275 6.275 0 0 0-1.626-4.485 1253.099 1253.099 0 0 0-3.597-4.068c-2.178-2.448-3.41-5.252-3.325-8.553.005-.207 0-.415 0-.667h5.422c.044.7.08 1.39.13 2.078a6.65 6.65 0 0 0 1.475 3.793c1.393 1.71 2.835 3.38 4.254 5.064zM70.959.421h20.428l.4 4.629h-7.913v18.417h-5.422V5.053h-7.883l.39-4.632z"/>
        </g>
    </g>
</svg>
