<svg xmlns="http://www.w3.org/2000/svg" width="128" height="118" viewBox="0 0 128 118">
    <g fill="none" fill-rule="evenodd">
        <path d="M0-5h128v128H0z"/>
        <g fill-rule="nonzero">
            <path fill="#D71F2B" d="M57.955 89.403l-4.04 9.256a217.88 217.88 0 0 1 20.949-1.198l-4.245-9.731c-4.44.475-8.65 1.04-12.664 1.673zM95.635 86.155l-4.58 11.816c15.555 1.13 24.638 3.719 24.638 3.719l7.23-15.135a364.78 364.78 0 0 0-27.288-.4zM4.217 107.498C.94 109.835.065 110.88.002 110.97c-.128.18 6.947-2.653 18.086-5.61 10.338-2.744 15.668-3.65 21.209-4.673-.848-2.186-1.74-4.487-2.65-6.84-17.844 4.763-27.683 10.263-32.43 13.65z"/>
            <path fill="#231F20" d="M64.65 20.176l18.896 48.746L118.16.5 83.747 45.935 64.653 2.347l-19.1 43.591L11.139.5l34.616 68.422z"/>
            <path fill="#231F20" d="M95.635 86.155c3.674-9.474 7.236-18.65 9.126-23.48C111.298 45.963 127.364.5 127.364.5L82.967 91.544C77.96 79.099 64.645 46.038 64.645 46.038c-.928 2.297-13.32 33.09-18.312 45.504L1.937.5S18.003 45.963 24.54 62.675c2.402 6.137 7.508 19.302 12.105 31.172l2.65 6.84c3.63 9.37 6.456 16.68 6.456 16.68l8.164-18.708 4.04-9.256 6.697-15.351 5.966 13.678 4.245 9.73 8.687 19.922s3.38-8.761 7.505-19.411l4.579-11.816zM94.025 104.187a1.719 1.719 0 0 1-1.614-1.04 1.732 1.732 0 0 1 .348-1.893 1.714 1.714 0 0 1 1.878-.391c.647.265 1.07.897 1.07 1.598.018.457-.153.9-.47 1.227a1.65 1.65 0 0 1-1.212.5zm0-3.153a1.424 1.424 0 0 0-1.393.804 1.436 1.436 0 0 0 .236 1.595 1.42 1.42 0 0 0 1.566.36c.546-.214.905-.743.905-1.332a1.344 1.344 0 0 0-.352-.996 1.332 1.332 0 0 0-.962-.43zm-.34 2.415h-.313v-1.91h.722c.46 0 .694.16.694.548a.489.489 0 0 1-.497.522l.534.84h-.355l-.49-.816h-.296v.816zm.349-1.084c.234 0 .44-.024.44-.3 0-.232-.224-.26-.412-.26h-.378v.56h.35z"/>
        </g>
    </g>
</svg>
