<svg xmlns="http://www.w3.org/2000/svg" viewBox="0 0 187.087 86.607">
  <g data-name="Layer 2">
    <g fill="#231f20" fill-rule="evenodd" data-name="Layer 1">
      <path d="M77.488 39.661l-21.51.766 20.424 1.135 1.086-1.901zM74.915 44.181l-21.561.767 20.501 1.139 1.06-1.906zM72.343 48.739l-21.535.756 20.475 1.137 1.06-1.893zM69.823 53.273l-21.561.769 20.45 1.136 1.111-1.905zM96.18 16.846l-27.455.977 27.532 1.53-.077-2.507zM96.005 12.359l-24.663.865 24.741 1.419-.078-2.284zM95.83 8.033l-21.974.722 22.078 1.227-.104-1.949zM95.681 3.59l-19.26.644 19.337 1.142-.077-1.786zM95.557 0H78.805l16.777.89-.025-.89zM67.224 57.807l-21.509.779h21.07l.439-.779z"/>
      <path d="M140.118.144H109.12l-.88 1.556 15.512.823c.181 0 .181.258-.077.258l-16.339.547-1.577 2.757 15.408.91a.156.156 0 0 1-.026.31l-16.364.539-1.525 2.64 15.381.854c.337.026.337.31 0 .31l-16.338.574-1.551 2.761 15.33.88c.336.026.31.336 0 .336l-16.338.581-1.577 2.728 15.356.853c.232.026.258.31-.052.31l-47.077 1.577 44.673 2.482c.284 0 .258.362-.052.362l-47.154 1.68 44.672 2.482c.207 0 .259.336-.051.336l-47.232 1.706 44.672 2.482c.181.026.362.362-.026.388l-47.154 1.68 44.673 2.482c.129.026.258.362-.052.362l-23.732.845.078 2.142 21.146 1.175a.17.17 0 0 1-.052.337l-21.017.747.102 2.395 18.356 1.02c.181.025.259.387-.052.387l-18.2.639.079 2.629 15.64.869c.18.026.232.362-.078.362l-15.485.552.103 2.892 12.926.718c.181.025.181.336-.077.336l-12.797.463.052 1.243h41.725c11.065 0 20.992-8.066 22.853-14.477 1.862-6.411 1.862-12.202-7.032-15.098 4.964-1.137 13.597-6.736 15.305-14.477C154.75 7.357 152.165.17 140.118.144zm-20.988 44.9h-12.822l7.238-12.822h9.514c9.824 0 5.067 12.823-3.93 12.823zm16.595-27.508c-.413 1.551-3.516 5.481-7.445 5.481h-9.514l6.101-10.755h4.86c6.205.207 6.412 3.723 5.998 5.274zM187.087 77.024a9.2 9.2 0 0 0-9.099-9.13 9.358 9.358 0 0 0-9.26 9.421 9.253 9.253 0 0 0 9.292 9.292 8.95 8.95 0 0 0 8.421-6.098h-4.71a4.215 4.215 0 0 1-3.84 2.162 4.899 4.899 0 0 1-4.646-3.517h13.616a12.25 12.25 0 0 0 .226-2.13zm-13.97-1.243a5.023 5.023 0 0 1 4.936-3.968 4.862 4.862 0 0 1 4.84 3.968h-9.777zM125.922 68.755v1.449a7.376 7.376 0 0 0-5.414-2.278 8.875 8.875 0 0 0-8.609 9.13c0 4.872 3.505 9.24 8.7 9.24a6.784 6.784 0 0 0 5.678-2.4v2.291h3.936V68.755zm-4.808 13.847a5.41 5.41 0 1 1 5.41-5.411 5.411 5.411 0 0 1-5.41 5.41zM8.582 67.893a6.01 6.01 0 0 0-4.613 2.129v-1.71H0v17.875h4.291v-8.421c0-2.291.194-5.937 3.356-5.937 2.968 0 3.29 3.42 3.29 5.614v8.744h4.292v-9.583a10.556 10.556 0 0 0-.871-5.13 6.497 6.497 0 0 0-5.776-3.581zM35.247 77.024a9.2 9.2 0 0 0-9.1-9.13 9.358 9.358 0 0 0-9.26 9.421 9.254 9.254 0 0 0 9.293 9.292 8.95 8.95 0 0 0 8.421-6.098h-4.71a4.215 4.215 0 0 1-3.84 2.162 4.899 4.899 0 0 1-4.646-3.517h13.616a12.25 12.25 0 0 0 .226-2.13zm-13.97-1.243a5.022 5.022 0 0 1 4.936-3.968 4.862 4.862 0 0 1 4.84 3.968h-9.777zM105.851 86.173h4.291V62.329h-4.291v23.844zM141.536 67.893a6.01 6.01 0 0 0-4.614 2.129v-1.71h-3.969v17.875h4.292v-8.421c0-2.291.193-5.937 3.355-5.937 2.969 0 3.291 3.42 3.291 5.614v8.744h4.291v-9.583a10.555 10.555 0 0 0-.87-5.13 6.497 6.497 0 0 0-5.776-3.581zM158.893 71.83a4.236 4.236 0 0 1 4.162 2.452h4.84a9.23 9.23 0 0 0-8.84-6.388 9.344 9.344 0 0 0-9.422 9.292 9.453 9.453 0 0 0 9.422 9.421 9.583 9.583 0 0 0 7.033-3.13 7.847 7.847 0 0 0 1.807-3.161h-4.84a4.52 4.52 0 0 1-3.904 2.355 5.193 5.193 0 0 1-5.227-5.42c0-3.13 2.13-5.421 4.97-5.421zM51.649 79.218l-3.04-10.905h-3.452l-3.072 10.905-3.633-10.905h-3.787l5.968 17.875h2.749l3.485-11.583 3.388 11.583h2.884l5.723-17.875h-3.548l-3.665 10.905zM74.64 67.912a7.376 7.376 0 0 0-5.415 2.278v-7.86h-4.29v23.843h3.935v-2.29a6.785 6.785 0 0 0 5.679 2.4c5.195 0 8.7-4.369 8.7-9.241a8.875 8.875 0 0 0-8.61-9.13zm-.606 14.69a5.41 5.41 0 1 1 5.41-5.411 5.41 5.41 0 0 1-5.41 5.41zM98.693 68.755v1.449a7.376 7.376 0 0 0-5.414-2.278 8.875 8.875 0 0 0-8.609 9.13c0 4.872 3.504 9.24 8.7 9.24a6.784 6.784 0 0 0 5.678-2.4v2.291h3.936V68.755zm-4.809 13.847a5.41 5.41 0 1 1 5.411-5.411 5.411 5.411 0 0 1-5.41 5.41z"/>
    </g>
  </g>
</svg>
