<svg xmlns="http://www.w3.org/2000/svg" width="129" height="12" viewBox="0 0 129 12">
    <g fill="none" fill-rule="evenodd">
        <path d="M1-58h128V70H1z"/>
        <path fill="#231F20" d="M23.07.609h-1.25V.365h1.25c.5 0 1 0 1.25-.365v11.083h1.249v.244h-3.75v-.244h1.25V.609zM28.568 5.237h-1.25v-.244h1.25c.49.07.988-.063 1.375-.365v6.455h1.25v.244h-3.874v-.244h1.25V5.237zm.75-4.14a.796.796 0 0 1 .75.73.821.821 0 0 1-.75.852.865.865 0 0 1-.624-.243.823.823 0 0 1-.25-.61.83.83 0 0 1 .874-.73zM37.441 5.237h-1.5c-1.874 0-2.124.853-2.124 2.192h-.25V4.993h5.749l-4.5 6.09h1.5c1.625 0 2.25-.487 2.25-2.07h.25v2.314h-5.874l4.5-6.09zM46.939 10.474c0 .365 0 .73.375.73s.625-.365.875-.608l.125.122c-.226.54-.778.882-1.375.852a1.38 1.38 0 0 1-1.375-.974 2.778 2.778 0 0 1-2.25.974c-1.249 0-1.999-.609-1.999-1.705 0-1.705 2.375-2.192 4-2.192h.25V5.846c0-.73-.75-.974-1.25-.974s-1.625.243-1.625.73c0 .366.625.244.625.975a.695.695 0 0 1-.75.609c-.5 0-.75-.366-.75-.853 0-.852.875-1.705 2.5-1.705 1.124 0 2.624.609 2.624 1.827v4.02-.001zm-1.625-2.558c-1.124 0-2.624 0-2.624 1.705 0 .853.125 1.584 1.125 1.584a1.706 1.706 0 0 0 1.75-1.218v-2.07h-.25zM50.688.609h-1.125V.365h1.125c.5 0 1 0 1.25-.365v6.211a2.64 2.64 0 0 1 2.25-1.583c1.874 0 3.124 1.949 3.124 3.41 0 1.827-1.25 3.532-3.25 3.532a2.519 2.519 0 0 1-2.124-1.34v1.097h-2.375v-.244h1.125V.609zm1.25 8.525c-.022 1.174.922 2.149 2.124 2.193 1.5 0 1.75-.975 1.75-3.289 0-2.07-.25-3.166-1.625-3.166-1.29.105-2.276 1.171-2.25 2.435v1.827zM60.686 8.89c-.125 1.097.125 2.437 1.624 2.437 1.261-.059 2.306-.975 2.5-2.193h.25c-.16 1.371-1.336 2.414-2.75 2.436-1.874 0-3.249-1.461-3.249-3.532 0-1.461 1.25-3.41 3-3.41 1.874 0 2.874 2.07 2.874 2.68a.118.118 0 0 1-.036.086.124.124 0 0 1-.09.035h-4.123v1.462zm2.624-2.07c0-.974-.25-1.948-1.25-1.948-1.124 0-1.374.974-1.374 1.948v.366h2.624V6.82zM67.684 5.237h-1.375v-.244c1.625 0 2.25-.609 2.5-2.192h.25v2.192h2.124v.244H69.06v5.237c0 .609.25.853.75.853.75 0 1.124-.731 1.25-.975h.25a1.84 1.84 0 0 1-1.75 1.218c-1.125 0-1.875-.365-1.875-1.461V5.237zM73.808.609h-1.25V.365h1.25c.49.07.987-.063 1.374-.365v6.211a2.837 2.837 0 0 1 2.375-1.583c1.624 0 2.124.853 2.124 1.827v4.628h1.25v.244h-3.75v-.244h1.25V5.968c0-.853-.5-1.096-1-1.096-1.249 0-1.999 1.34-2.249 1.826v4.385h1.25v.244h-3.874v-.244h1.25V.609zM97.802 5.237h-1.375v-.244h1.375c.5 0 1 0 1.25-.365v1.827h.125c.082-1.022.949-1.814 1.999-1.827.272-.024.54.07.734.259.193.188.29.45.266.715a.694.694 0 0 1-.21.526.73.73 0 0 1-.54.205c-.5 0-.625-.365-.625-.73 0-.366.125-.61.375-.61a.39.39 0 0 0-.25-.121c-.625 0-1.875.974-1.875 3.044v3.167h1.5v.244h-4.124v-.244h1.375V5.237zM108.924 10.23a2.518 2.518 0 0 1-2.124 1.34c-2 0-3.25-1.705-3.25-3.532 0-1.461 1.25-3.41 3.125-3.41 1.009.034 1.897.66 2.249 1.583V.61h-1.25V.365h1.25c.49.07.988-.063 1.375-.365v11.083h1v.244h-2.375V10.23zm0-2.923c.026-1.264-.958-2.33-2.25-2.435-1.374 0-1.624 1.096-1.624 3.166 0 2.314.25 3.289 1.75 3.289 1.2-.048 2.142-1.02 2.124-2.193V7.307zM114.048 8.89c0 1.097.125 2.437 1.625 2.437 1.304-.011 2.411-.936 2.624-2.193h.25c-.178 1.411-1.419 2.463-2.874 2.436-1.75 0-3.125-1.461-3.125-3.532 0-1.461 1.25-3.41 3-3.41 1.874 0 2.749 2.07 2.749 2.68 0 .121 0 .121-.125.121h-4.124v1.462zm2.75-2.07c0-.974-.25-1.948-1.25-1.948-1.125 0-1.5.974-1.5 1.948v.366h2.75V6.82zM121.171 5.237h-1.25v-.244h1.25c.75 0 1 0 1.375-.365v1.583a2.675 2.675 0 0 1 2.374-1.583c1.625 0 2.125.853 2.125 1.827v4.628h1.25v.244h-3.875v-.244h1.25V5.968c0-.853-.375-1.096-.875-1.096-1.374 0-2 1.34-2.25 1.826v4.385h1.125v.244h-3.749v-.244h1.25V5.237zM12.447.853h-1.375V.609h8.248l.25 2.558h-.374c0-1.706-1.125-2.314-2.75-2.314h-2.5v4.871h1.25c1.625 0 1.75-.974 1.75-1.948h.25v4.14h-.25c0-1.218-.125-1.948-1.874-1.948h-1.125v5.115h2.124c2.5 0 3.75-.244 3.75-2.923h.25v3.167h-8.999v-.244h1.375V.853zM91.178 7.795h-3.374l-.625 1.948a2.952 2.952 0 0 0-.125.975c0 .243.125.365.625.365h.75v.244h-3.124v-.244h.5c.5 0 .625 0 1-.852L90.053.365h.25l3.749 10.718h1.25v.244h-4.5v-.244h1.5l-1.125-3.288zm-1.624-4.872h-.125l-1.5 4.628h3.25l-1.625-4.628z"/>
        <path fill="#E81C34" stroke="#E81C34" stroke-width=".5" d="M1.2 11.204h5.499V.731h-5.5v10.473z"/>
        <path stroke="#FFF" stroke-width=".5" d="M4.324 2.558h1.5V1.46h-1.5v1.097zm-2.374 0h1.5V1.46h-1.5v1.097zm0 3.044h1.5V3.167h-1.5v2.435zm2.374 0h1.5V3.167h-1.5v2.435zM1.95 7.43h1.5V6.333h-1.5V7.43zm2.374 0h1.5V6.333h-1.5V7.43zM1.95 10.596h1.5V8.16h-1.5v2.436zm2.374 0h1.5V8.16h-1.5v2.436z"/>
    </g>
</svg>
